<svg width="20" height="20" viewBox="0 0 20 20" fill="none" xmlns="http://www.w3.org/2000/svg">
    <path
        d="M8.6009 14.1528L15.1827 7.57128L14.1894 6.57803L8.6009 12.1663L5.79115 9.35678L4.7979 10.35L8.6009 14.1528ZM10.0022 19.298C8.71632 19.298 7.50749 19.0537 6.37565 18.565C5.24365 18.0762 4.25899 17.4129 3.42165 16.575C2.58449 15.7372 1.9219 14.7534 1.4339 13.6238C0.945904 12.4939 0.701904 11.2868 0.701904 10.0023C0.701904 8.71644 0.946237 7.50761 1.4349 6.37578C1.92374 5.24378 2.58707 4.25911 3.4249 3.42178C4.26274 2.58461 5.24649 1.92203 6.37615 1.43403C7.50599 0.946026 8.71315 0.702026 9.99765 0.702026C11.2835 0.702026 12.4923 0.94636 13.6242 1.43503C14.7562 1.92386 15.7408 2.58719 16.5782 3.42503C17.4153 4.26286 18.0779 5.24661 18.5659 6.37628C19.0539 7.50611 19.2979 8.71328 19.2979 9.99778C19.2979 11.2836 19.0536 12.4924 18.5649 13.6243C18.0761 14.7563 17.4127 15.7409 16.5749 16.5783C15.7371 17.4154 14.7533 18.078 13.6237 18.566C12.4938 19.054 11.2867 19.298 10.0022 19.298ZM9.99965 17.899C12.1978 17.899 14.0639 17.1322 15.5979 15.5985C17.1319 14.0647 17.8989 12.1986 17.8989 10.0003C17.8989 7.80211 17.1321 5.93603 15.5984 4.40203C14.0646 2.86803 12.1985 2.10103 10.0002 2.10103C7.80199 2.10103 5.9359 2.86786 4.4019 4.40153C2.8679 5.93536 2.1009 7.80144 2.1009 9.99978C2.1009 12.1979 2.86774 14.064 4.4014 15.598C5.93524 17.132 7.80132 17.899 9.99965 17.899Z"
        fill="#000" />
</svg>
    