<svg width="17" height="19" viewBox="0 0 17 19" fill="none" xmlns="http://www.w3.org/2000/svg">
    <path
        d="M5.95665 15.5C5.48265 15.5 5.07974 15.334 4.7479 15.002C4.4159 14.6702 4.2499 14.2673 4.2499 13.7933V2.40878C4.2499 1.93478 4.4159 1.53178 4.7479 1.19978C5.07974 0.867942 5.48265 0.702026 5.95665 0.702026H14.3412C14.8152 0.702026 15.2182 0.867942 15.5502 1.19978C15.882 1.53178 16.0479 1.93478 16.0479 2.40878V13.7933C16.0479 14.2673 15.882 14.6702 15.5502 15.002C15.2182 15.334 14.8152 15.5 14.3412 15.5H5.95665ZM5.95665 14.101H14.3412C14.4182 14.101 14.4887 14.0689 14.5527 14.0048C14.6168 13.9408 14.6489 13.8703 14.6489 13.7933V2.40878C14.6489 2.33178 14.6168 2.26119 14.5527 2.19703C14.4887 2.13303 14.4182 2.10103 14.3412 2.10103H5.95665C5.87965 2.10103 5.80915 2.13303 5.74515 2.19703C5.68099 2.26119 5.6489 2.33178 5.6489 2.40878V13.7933C5.6489 13.8703 5.68099 13.9408 5.74515 14.0048C5.80915 14.0689 5.87965 14.101 5.95665 14.101ZM2.65865 18.798C2.18465 18.798 1.78165 18.632 1.44965 18.3C1.11782 17.9682 0.951904 17.5653 0.951904 17.0913V4.30778H2.3509V17.0913C2.3509 17.1683 2.38299 17.2388 2.44715 17.3028C2.51115 17.3669 2.58165 17.399 2.65865 17.399H12.4422V18.798H2.65865Z"
        fill="#000" />
</svg>
    