<svg width="13" height="13" viewBox="0 0 13 13" fill="none" xmlns="http://www.w3.org/2000/svg">
    <path
        d="M11.3378 2.31975L1.52205 12.1128C1.40989 12.2338 1.2733 12.2918 1.1123 12.287C0.951138 12.2822 0.811888 12.2211 0.694555 12.1038C0.577221 11.9866 0.518555 11.8503 0.518555 11.6948C0.518555 11.5394 0.577221 11.399 0.694555 11.2735L10.4883 1.47025H1.6863C1.5158 1.47025 1.37447 1.41384 1.2623 1.301C1.1503 1.18834 1.0943 1.04625 1.0943 0.874753C1.0943 0.703419 1.1503 0.560253 1.2623 0.445253C1.37447 0.33042 1.5158 0.273003 1.6863 0.273003H11.7761C11.9901 0.273003 12.1701 0.346003 12.3161 0.492003C12.4621 0.638003 12.5351 0.818004 12.5351 1.032V11.1218C12.5351 11.2923 12.4765 11.4336 12.3593 11.5458C12.2421 11.6578 12.0979 11.7138 11.9266 11.7138C11.7551 11.7138 11.6141 11.6578 11.5036 11.5458C11.3931 11.4336 11.3378 11.2923 11.3378 11.1218V2.31975Z"
        fill="#000" />
</svg>
    