<svg width="18" height="18" viewBox="0 0 18 18" fill="none" xmlns="http://www.w3.org/2000/svg">
    <path
        d="M16.4413 17.4027L10.244 11.2027C9.7505 11.6156 9.18134 11.9341 8.5365 12.1582C7.89167 12.3822 7.23142 12.4942 6.55575 12.4942C4.88159 12.4942 3.46675 11.9163 2.31125 10.7603C1.15575 9.60425 0.578003 8.19175 0.578003 6.52275C0.578003 4.85375 1.15509 3.44042 2.30925 2.28275C3.46359 1.12508 4.87609 0.546249 6.54675 0.546249C8.21742 0.546249 9.63167 1.12475 10.7895 2.28175C11.9472 3.43892 12.526 4.85283 12.526 6.5235C12.526 7.222 12.4087 7.89492 12.174 8.54225C11.9393 9.18975 11.6262 9.75042 11.2345 10.2243L17.4345 16.4095L16.4413 17.4027ZM6.552 11.0953C7.832 11.0953 8.9145 10.6534 9.7995 9.76975C10.6845 8.88592 11.127 7.80258 11.127 6.51975C11.127 5.23675 10.6845 4.15358 9.7995 3.27025C8.9145 2.38692 7.83117 1.94525 6.5495 1.94525C5.26784 1.94525 4.18534 2.38708 3.302 3.27075C2.41867 4.15442 1.977 5.23775 1.977 6.52075C1.977 7.80375 2.41875 8.88692 3.30225 9.77025C4.18592 10.6536 5.26917 11.0953 6.552 11.0953Z"
        fill="#000" />
</svg>
    