<svg class="svg" xmlns="http://www.w3.org/2000/svg" viewBox="0 0 4000 2250"
    style="border-radius: 10px;">
    <rect height="100%" width="100%" fill="#111" rx="10" />
    <!-- Width 1080px and height 196.34 -->
    <style>
        @keyframes colorChange {
        0% { fill: red; }
        25% { fill: aqua; }
        50% { fill: green; }
        75% { fill: yellow; }
        100% { fill: red; }
        }
        #dvd { fill: red; animation: colorChange 15s infinite; }
    </style>
    <svg id="dvd" height="100%" width="100%" fill="#fff">
        <path
            d="M282.334 138.168V145.44H231.43V138.168H224.158V130.896H216.886V138.168H202.342V123.624H209.614V101.808H216.886V94.5362H224.158V116.352H231.43V130.896H238.702V138.168H275.062V130.896H282.334V123.624H289.606V94.5362H282.334V87.2642H275.062V79.9922H260.518V72.7202H253.246V65.4482H238.702V50.9041H231.43V29.0881H238.702V14.544H245.974V7.27202H253.246V0H304.151V7.27202H311.423V14.544H318.695V7.27202H333.239V21.8161H325.967V43.6321H318.695V50.9041H311.423V29.0881H304.151V14.544H296.879V7.27202H267.79V14.544H260.518V21.8161H253.246V43.6321H260.518V50.9041H267.79V58.1761H275.062V65.4482H289.606V72.7202H296.879V79.9922H304.151V87.2642H311.423V116.352H304.151V130.896H296.879V138.168H282.334Z"
            fill="inherit" />
        <path
            d="M340.421 116.352H347.693V130.896H369.509V138.168H362.237V145.44H333.149V138.168H325.877V94.5362H333.149V79.9922H340.421V72.7202H347.693V65.4482H354.965V58.1761H362.237V50.9041H376.781V43.6321H398.597V50.9041H427.686V65.4482H420.414V79.9922H413.141V101.808H405.869V116.352H398.597V130.896H413.141V138.168H405.869V145.44H384.053V138.168H376.781V130.896H369.509V123.624H376.781V116.352H384.053V109.08H391.325V94.5362H398.597V72.7202H405.869V58.1761H391.325V50.9041H384.053V58.1761H369.509V65.4482H362.237V72.7202H354.965V87.2642H347.693V109.08H340.421V116.352ZM384.053 123.624H376.781V130.896H384.053V123.624H391.325V116.352H384.053V123.624Z"
            fill="inherit" />
        <path
            d="M497.2 0V14.544H489.928V29.0881H482.656V50.9041H475.384V65.4482H468.112V87.2642H460.84V101.808H453.568V123.624H446.296V130.896H460.84V138.168H453.568V145.44H431.752V116.352H439.024V94.5362H446.296V79.9922H453.568V58.1761H460.84V43.6321H468.112V21.8161H475.384V7.27202H468.112V0H497.2Z"
            fill="inherit" />
        <path
            d="M514.917 138.168V145.44H493.101V138.168H485.829V123.624H493.101V101.808H500.373V79.9922H507.645V65.4482H514.917V58.1761H500.373V50.9041H507.645V43.6321H522.189V36.3601H529.461V29.0881H536.733V21.8161H544.005V36.3601H536.733V50.9041H558.549V58.1761H529.461V72.7202H522.189V94.5362H514.917V116.352H507.645V130.896H529.461V138.168H514.917Z"
            fill="inherit" />
        <path
            d="M580.284 181.8H565.74V174.528H573.012V167.256H580.284V159.984H587.556V101.808H580.284V58.1761H565.74V50.9041H587.556V43.6321H594.828V58.1761H602.1V116.352H609.372V130.896H616.644V123.624H623.916V109.08H631.188V94.5362H638.46V79.9922H645.732V65.4482H631.188V58.1761H638.46V43.6321H653.004V50.9041H660.276V65.4482H653.004V87.2642H645.732V101.808H638.46V116.352H631.188V123.624H623.916V138.168H616.644V145.44H609.372V152.712H602.1V159.984H594.828V167.256H587.556V174.528H580.284V181.8ZM551.196 189.072V196.344H536.652V189.072H529.38V167.256H543.924V174.528H551.196V181.8H565.74V189.072H551.196Z"
            fill="inherit" />
        <path
            d="M789.2 138.168V145.44H745.568V138.168H731.024V130.896H723.752V123.624H716.48V109.08H709.208V65.4482H716.48V43.6321H723.752V36.3601H731.024V29.0881H738.296V21.8161H745.568V14.544H752.84V7.27202H767.384V0H818.289V7.27202H825.561V14.544H832.833V21.8161H840.105V7.27202H854.649V14.544H847.377V36.3601H840.105V58.1761H832.833V36.3601H825.561V21.8161H818.289V14.544H811.017V7.27202H781.928V14.544H767.384V21.8161H760.112V29.0881H752.84V36.3601H745.568V50.9041H738.296V72.7202H731.024V109.08H738.296V123.624H745.568V130.896H760.112V138.168H789.2ZM803.745 138.168H789.2V130.896H803.745V123.624H811.017V116.352H818.289V123.624H811.017V130.896H803.745V138.168Z"
            fill="inherit" />
        <path
            d="M912.833 138.168V145.44H861.929V138.168H854.657V130.896H847.385V138.168H832.841V123.624H840.113V101.808H847.385V94.5362H854.657V116.352H861.929V130.896H869.201V138.168H905.561V130.896H912.833V123.624H920.105V94.5362H912.833V87.2642H905.561V79.9922H891.017V72.7202H883.745V65.4482H869.201V50.9041H861.929V29.0881H869.201V14.544H876.473V7.27202H883.745V0H934.649V7.27202H941.921V14.544H949.193V7.27202H963.737V21.8161H956.465V43.6321H949.193V50.9041H941.921V29.0881H934.649V14.544H927.377V7.27202H898.289V14.544H891.017V21.8161H883.745V43.6321H891.017V50.9041H898.289V58.1761H905.561V65.4482H920.105V72.7202H927.377V79.9922H934.649V87.2642H941.921V116.352H934.649V130.896H927.377V138.168H912.833Z"
            fill="inherit" />
        <path
            d="M1029.1 138.168V145.44H978.192V138.168H970.92V130.896H963.648V138.168H949.104V123.624H956.376V101.808H963.648V94.5362H970.92V116.352H978.192V130.896H985.464V138.168H1021.82V130.896H1029.1V123.624H1036.37V94.5362H1029.1V87.2642H1021.82V79.9922H1007.28V72.7202H1000.01V65.4482H985.464V50.9041H978.192V29.0881H985.464V14.544H992.736V7.27202H1000.01V0H1050.91V7.27202H1058.18V14.544H1065.46V7.27202H1080V21.8161H1072.73V43.6321H1065.46V50.9041H1058.18V29.0881H1050.91V14.544H1043.64V7.27202H1014.55V14.544H1007.28V21.8161H1000.01V43.6321H1007.28V50.9041H1014.55V58.1761H1021.82V65.4482H1036.37V72.7202H1043.64V79.9922H1050.91V87.2642H1058.18V116.352H1050.91V130.896H1043.64V138.168H1029.1Z"
            fill="inherit" />
        <path fill-rule="evenodd" clip-rule="evenodd"
            d="M141.745 53.9595V59.8684H112.2V53.9645H110.63V53.9595H100.382V36.2327H94.4731V30.3238H100.382V12.597H106.291V6.68809H110.63V6.68666H118.109V0.779175H129.927V6.68666H139.252V6.68809H141.745V12.597H147.653V18.5059H153.562V42.1416H147.653V53.9595H141.745Z"
            fill="inherit" />
        <path fill-rule="evenodd" clip-rule="evenodd"
            d="M112.2 139.795V145.704H82.6555V139.8H81.086V139.795H70.8376V122.068H64.9287V116.159H70.8376V98.4323H76.7466V92.5234H81.086V92.522H88.5644V86.6145H100.382V92.522H109.707V92.5234H112.2V98.4323H118.109V104.341H124.018V127.977H118.109V139.795H112.2Z"
            fill="inherit" />
        <path fill-rule="evenodd" clip-rule="evenodd"
            d="M47.2714 74.0544V79.9633H17.7268V74.0594H16.1573V74.0544H5.90892V56.3276H0V50.4187H5.90892V32.692H11.8178V26.783H16.1573V26.7816H23.6357V20.8741H35.4535V26.7816H44.7786V26.783H47.2714V32.692H53.1803V38.6009H59.0892V62.2366H53.1803V74.0544H47.2714Z"
            fill="inherit" />

        <animate id="xAnim" attributeName="x" dur="11.2" values="0%;73%;0%"
            repeatCount="indefinite" />
        <animate id="yAnim" attributeName="y" dur="15.6" values="0%;91.273%;0%"
            repeatCount="indefinite" />
    </svg>
</svg>